# xmcd
#
# Track frame offsets: 
#        150
#        2613
#        19343
#        40827
#        56307
#        74683
#        92348
#        112313
#        130380
#        149440
#        167990
#        186841
#        206841
#        218684
#        240193
#        254329
#        272138
#        290996
#
# Disc length: 4207 seconds
#
# Revision: 1
# Processed by: cddbd v1.5.2PL0 Copyright (c) Steve Scherf et al.
# Submitted via: ExactAudioCopy v0.90b4
#
DISCID=17106d12
DTITLE=The Game - The Documentary
DYEAR=2005
DGENRE=Hip-Hop
TTITLE0=Intro
TTITLE1=Westside Story (Feat. 50 Cent)
TTITLE2=Dreams
TTITLE3=Hate It Or Love It (Feat. 50 Cent)
TTITLE4=Higher
TTITLE5=How We Do (Feat. 50 Cent)
TTITLE6=Don't Need Your Love (Feat. Faith Evans)
TTITLE7=Church For Thugs
TTITLE8=Put You On The Game
TTITLE9=Start From Scratch (Feat. Marsha Ambrosius)
TTITLE10=The Documentary
TTITLE11=Runnin' (Feat. Tony Yayo)
TTITLE12=No More Fun And Games
TTITLE13=We Ain't (Feat. Eminem)
TTITLE14=Where I'm From (Feat. Nate Dogg)
TTITLE15=Special (Feat. Nate Dogg)
TTITLE16=Don't Worry (Feat. Mary J. Blige)
TTITLE17=Like Father, Like Son (Feat. Busta Rhymes)
EXTD=
EXTT0=
EXTT1=
EXTT2=
EXTT3=
EXTT4=
EXTT5=
EXTT6=
EXTT7=
EXTT8=
EXTT9=
EXTT10=
EXTT11=
EXTT12=
EXTT13=
EXTT14=
EXTT15=
EXTT16=
EXTT17=
PLAYORDER=
